<svg width="212" height="62" viewBox="0 0 212 62" fill="none" xmlns="http://www.w3.org/2000/svg">
<path d="M98.126 40.4973C98.4548 40.4973 98.7388 40.6243 98.978 40.8784L101.355 43.4568C100.039 45.086 98.4175 46.334 96.4893 47.2009C94.5761 48.0678 92.2743 48.5013 89.5839 48.5013C87.1775 48.5013 85.0102 48.0903 83.0821 47.2682C81.1689 46.4461 79.5322 45.3027 78.172 43.8379C76.8119 42.3731 75.7656 40.6243 75.0332 38.5916C74.3158 36.5588 73.957 34.3392 73.957 31.9328C73.957 29.4965 74.3606 27.2694 75.1677 25.2516C75.9748 23.2188 77.1108 21.47 78.5756 20.0052C80.0404 18.5404 81.7892 17.4045 83.8219 16.5974C85.8696 15.7753 88.1266 15.3643 90.5928 15.3643C92.9992 15.3643 95.0993 15.7529 96.8929 16.5301C98.7015 17.2924 100.248 18.3088 101.534 19.5793L99.5161 22.3818C99.3965 22.5611 99.2395 22.7181 99.0452 22.8526C98.8659 22.9871 98.6118 23.0544 98.2829 23.0544C97.9392 23.0544 97.5879 22.9199 97.2292 22.6508C96.8705 22.3818 96.4146 22.0903 95.8616 21.7764C95.3085 21.4625 94.606 21.1711 93.7541 20.902C92.917 20.633 91.8483 20.4985 90.548 20.4985C89.0234 20.4985 87.6184 20.7675 86.333 21.3056C85.0625 21.8287 83.9639 22.5836 83.0372 23.57C82.1255 24.5565 81.408 25.7598 80.8849 27.1797C80.3767 28.5847 80.1226 30.1691 80.1226 31.9328C80.1226 33.7563 80.3767 35.378 80.8849 36.798C81.408 38.2179 82.1105 39.4137 82.9924 40.3852C83.8742 41.3567 84.913 42.1041 86.1088 42.6272C87.3045 43.1354 88.5899 43.3895 89.965 43.3895C90.7871 43.3895 91.527 43.3447 92.1847 43.255C92.8573 43.1653 93.4701 43.0233 94.0231 42.829C94.5911 42.6347 95.1217 42.3881 95.6149 42.0891C96.1231 41.7752 96.6238 41.3941 97.1171 40.9457C97.2666 40.8112 97.4235 40.7065 97.5879 40.6318C97.7523 40.5421 97.9317 40.4973 98.126 40.4973Z" fill="#0B72FF"/>
<path d="M122.739 48.1426H120.25C119.727 48.1426 119.316 48.0678 119.017 47.9184C118.718 47.754 118.494 47.4326 118.344 46.9543L117.851 45.3176C117.268 45.8408 116.693 46.3041 116.125 46.7077C115.572 47.0963 114.996 47.4251 114.399 47.6942C113.801 47.9632 113.165 48.165 112.493 48.2995C111.82 48.434 111.073 48.5013 110.251 48.5013C109.279 48.5013 108.382 48.3743 107.56 48.1202C106.738 47.8511 106.028 47.455 105.43 46.9319C104.848 46.4088 104.392 45.7586 104.063 44.9813C103.734 44.2041 103.57 43.2998 103.57 42.2685C103.57 41.4016 103.794 40.5496 104.242 39.7126C104.706 38.8606 105.468 38.0983 106.529 37.4257C107.59 36.7382 109.003 36.1702 110.766 35.7218C112.53 35.2734 114.72 35.0193 117.336 34.9595V33.6143C117.336 32.0748 117.007 30.9388 116.349 30.2064C115.706 29.4591 114.765 29.0854 113.524 29.0854C112.627 29.0854 111.88 29.19 111.282 29.3993C110.684 29.6086 110.161 29.8477 109.713 30.1167C109.279 30.3708 108.876 30.6025 108.502 30.8118C108.128 31.021 107.717 31.1257 107.269 31.1257C106.895 31.1257 106.574 31.0285 106.305 30.8342C106.036 30.6399 105.819 30.4007 105.655 30.1167L104.646 28.3455C107.291 25.9242 110.482 24.7135 114.219 24.7135C115.564 24.7135 116.76 24.9377 117.806 25.3861C118.868 25.8195 119.764 26.4324 120.497 27.2245C121.229 28.0018 121.782 28.9359 122.156 30.0271C122.545 31.1182 122.739 32.3139 122.739 33.6143V48.1426ZM111.977 44.6899C112.545 44.6899 113.068 44.6376 113.547 44.5329C114.025 44.4283 114.473 44.2714 114.892 44.0621C115.325 43.8528 115.736 43.5988 116.125 43.2998C116.528 42.9859 116.932 42.6197 117.336 42.2012V38.3225C115.721 38.3973 114.369 38.5393 113.277 38.7485C112.201 38.9428 111.334 39.1969 110.677 39.5108C110.019 39.8247 109.548 40.1909 109.264 40.6094C108.995 41.0279 108.861 41.4838 108.861 41.977C108.861 42.9486 109.145 43.6436 109.713 44.0621C110.296 44.4806 111.05 44.6899 111.977 44.6899Z" fill="#0B72FF"/>
<path d="M127.287 48.1426V25.1395H130.538C131.106 25.1395 131.502 25.2441 131.727 25.4533C131.951 25.6626 132.1 26.0213 132.175 26.5295L132.511 29.3096C133.333 27.8897 134.297 26.7687 135.403 25.9466C136.509 25.1245 137.75 24.7135 139.125 24.7135C140.261 24.7135 141.203 24.975 141.95 25.4982L141.233 29.6459C141.188 29.915 141.091 30.1093 140.941 30.2288C140.792 30.3335 140.59 30.3858 140.336 30.3858C140.112 30.3858 139.805 30.3335 139.417 30.2288C139.028 30.1242 138.512 30.0719 137.87 30.0719C136.719 30.0719 135.732 30.3933 134.91 31.036C134.088 31.6637 133.393 32.5904 132.825 33.8161V48.1426H127.287Z" fill="#0B72FF"/>
<path d="M160.882 48.1426C160.164 48.1426 159.694 47.8063 159.469 47.1337L159.021 44.9141C158.543 45.4522 158.042 45.9379 157.519 46.3714C156.996 46.8048 156.428 47.1785 155.815 47.4924C155.217 47.8063 154.567 48.0454 153.864 48.2098C153.177 48.3892 152.429 48.4789 151.622 48.4789C150.367 48.4789 149.216 48.2173 148.17 47.6942C147.123 47.171 146.219 46.4162 145.457 45.4297C144.709 44.4283 144.127 43.1952 143.708 41.7304C143.304 40.2656 143.103 38.5916 143.103 36.7083C143.103 35.0043 143.334 33.42 143.798 31.9552C144.261 30.4904 144.926 29.2199 145.793 28.1438C146.66 27.0676 147.699 26.2306 148.909 25.6327C150.12 25.0199 151.48 24.7135 152.99 24.7135C154.275 24.7135 155.374 24.9227 156.286 25.3412C157.197 25.7448 158.012 26.2904 158.73 26.9779V14.8262H164.267V48.1426H160.882ZM153.506 44.0845C154.657 44.0845 155.636 43.8454 156.443 43.3671C157.25 42.8888 158.012 42.2087 158.73 41.3268V31.0136C158.102 30.2513 157.414 29.7132 156.667 29.3993C155.934 29.0854 155.142 28.9285 154.29 28.9285C153.453 28.9285 152.691 29.0854 152.003 29.3993C151.331 29.7132 150.755 30.1915 150.277 30.8342C149.814 31.462 149.455 32.2691 149.201 33.2556C148.947 34.2271 148.82 35.378 148.82 36.7083C148.82 38.0535 148.924 39.1969 149.134 40.1386C149.358 41.0653 149.672 41.8276 150.075 42.4254C150.479 43.0084 150.972 43.4343 151.555 43.7034C152.138 43.9575 152.788 44.0845 153.506 44.0845Z" fill="#0B72FF"/>
<path d="M178.877 24.7807C180.327 24.7807 181.657 25.0124 182.868 25.4758C184.093 25.9391 185.147 26.6192 186.029 27.516C186.911 28.3979 187.598 29.489 188.092 30.7894C188.585 32.0748 188.831 33.547 188.831 35.2061C188.831 35.6246 188.809 35.9759 188.764 36.2599C188.734 36.5289 188.667 36.7456 188.562 36.9101C188.473 37.0595 188.346 37.1716 188.181 37.2464C188.017 37.3062 187.808 37.336 187.554 37.336H173.339C173.504 39.6976 174.139 41.4315 175.245 42.5375C176.351 43.6436 177.816 44.1966 179.639 44.1966C180.536 44.1966 181.306 44.092 181.948 43.8827C182.606 43.6735 183.174 43.4418 183.652 43.1877C184.146 42.9336 184.572 42.7019 184.93 42.4927C185.304 42.2834 185.663 42.1788 186.007 42.1788C186.231 42.1788 186.425 42.2237 186.589 42.3133C186.754 42.403 186.896 42.5301 187.015 42.6945L188.63 44.7123C188.017 45.4297 187.329 46.0351 186.567 46.5283C185.805 47.0066 185.005 47.3952 184.168 47.6942C183.346 47.9782 182.501 48.1799 181.635 48.2995C180.783 48.4191 179.953 48.4789 179.146 48.4789C177.547 48.4789 176.059 48.2173 174.684 47.6942C173.309 47.1561 172.113 46.3714 171.097 45.3401C170.081 44.2938 169.281 43.0084 168.698 41.4838C168.115 39.9443 167.824 38.1656 167.824 36.1478C167.824 34.5784 168.078 33.1061 168.586 31.731C169.094 30.3409 169.819 29.1377 170.761 28.1213C171.717 27.09 172.876 26.2754 174.236 25.6775C175.611 25.0797 177.158 24.7807 178.877 24.7807ZM178.989 28.7491C177.375 28.7491 176.112 29.205 175.2 30.1167C174.288 31.0285 173.705 32.3214 173.451 33.9954H183.854C183.854 33.278 183.757 32.6054 183.563 31.9776C183.368 31.3349 183.069 30.7744 182.666 30.2961C182.262 29.8178 181.754 29.4441 181.141 29.1751C180.529 28.8911 179.811 28.7491 178.989 28.7491Z" fill="#0B72FF"/>
<path d="M208.614 48.1426C207.897 48.1426 207.426 47.8063 207.202 47.1337L206.753 44.9141C206.275 45.4522 205.774 45.9379 205.251 46.3714C204.728 46.8048 204.16 47.1785 203.547 47.4924C202.949 47.8063 202.299 48.0454 201.597 48.2098C200.909 48.3892 200.162 48.4789 199.355 48.4789C198.099 48.4789 196.948 48.2173 195.902 47.6942C194.856 47.171 193.951 46.4162 193.189 45.4297C192.442 44.4283 191.859 43.1952 191.44 41.7304C191.037 40.2656 190.835 38.5916 190.835 36.7083C190.835 35.0043 191.067 33.42 191.53 31.9552C191.993 30.4904 192.658 29.2199 193.525 28.1438C194.392 27.0676 195.431 26.2306 196.642 25.6327C197.852 25.0199 199.213 24.7135 200.722 24.7135C202.008 24.7135 203.106 24.9227 204.018 25.3412C204.93 25.7448 205.744 26.2904 206.462 26.9779V14.8262H212V48.1426H208.614ZM201.238 44.0845C202.389 44.0845 203.368 43.8454 204.175 43.3671C204.982 42.8888 205.744 42.2087 206.462 41.3268V31.0136C205.834 30.2513 205.146 29.7132 204.399 29.3993C203.667 29.0854 202.875 28.9285 202.023 28.9285C201.186 28.9285 200.423 29.0854 199.736 29.3993C199.063 29.7132 198.488 30.1915 198.009 30.8342C197.546 31.462 197.187 32.2691 196.933 33.2556C196.679 34.2271 196.552 35.378 196.552 36.7083C196.552 38.0535 196.657 39.1969 196.866 40.1386C197.09 41.0653 197.404 41.8276 197.808 42.4254C198.211 43.0084 198.704 43.4343 199.287 43.7034C199.87 43.9575 200.52 44.0845 201.238 44.0845Z" fill="#0B72FF"/>
<path fill-rule="evenodd" clip-rule="evenodd" d="M11.4619 12.0027C12.4613 8.58207 16.0445 6.61927 19.4651 7.61868L41.0216 13.9168C44.4423 14.9163 46.4051 18.4994 45.4057 21.9201L35.7533 54.957C34.7539 58.3777 31.1707 60.3405 27.75 59.3411L6.19352 53.0429C2.77287 52.0435 0.81007 48.4603 1.80948 45.0397L11.4619 12.0027ZM18.0731 12.383C17.2837 12.1524 16.4569 12.6053 16.2262 13.3947L6.57382 46.4317C6.34318 47.2211 6.79614 48.0479 7.58552 48.2786L29.142 54.5767C29.9314 54.8074 30.7583 54.3544 30.9889 53.565L40.6413 20.5281C40.872 19.7387 40.419 18.9118 39.6296 18.6812L18.0731 12.383Z" fill="#0B72FF"/>
<path fill-rule="evenodd" clip-rule="evenodd" d="M24.9287 6.19364C25.9281 2.77299 29.5113 0.810183 32.9319 1.8096L54.4884 8.10776C57.9091 9.10718 59.8719 12.6903 58.8725 16.111L49.2201 49.148C48.2207 52.5686 44.6375 54.5314 41.2168 53.532L19.6603 47.2338C16.2397 46.2344 14.2769 42.6512 15.2763 39.2306L24.9287 6.19364ZM31.5399 6.57393C30.7505 6.3433 29.9237 6.79626 29.693 7.58564L20.0406 40.6226C19.81 41.412 20.2629 42.2389 21.0523 42.4695L42.6088 48.7677C43.3982 48.9983 44.2251 48.5453 44.4557 47.756L54.1081 14.719C54.3388 13.9296 53.8858 13.1027 53.0964 12.8721L31.5399 6.57393Z" fill="#0B72FF"/>
</svg>
