<svg width="216" height="216" viewBox="0 0 216 216" fill="none" xmlns="http://www.w3.org/2000/svg">
<path fill-rule="evenodd" clip-rule="evenodd" d="M107.934 215.868C48.3237 215.868 1.5974e-05 167.544 1.5974e-05 107.934C1.5974e-05 48.3237 48.3237 0 107.934 0C167.544 0 215.868 48.3237 215.868 107.934C215.868 167.544 167.544 215.868 107.934 215.868Z" fill="#0B72FF"/>
<mask id="mask0" mask-type="alpha" maskUnits="userSpaceOnUse" x="0" y="0" width="216" height="216">
<path fill-rule="evenodd" clip-rule="evenodd" d="M107.934 215.868C48.3237 215.868 1.5974e-05 167.544 1.5974e-05 107.934C1.5974e-05 48.3237 48.3237 0 107.934 0C167.544 0 215.868 48.3237 215.868 107.934C215.868 167.544 167.544 215.868 107.934 215.868Z" fill="white"/>
</mask>
<g mask="url(#mask0)">
<path fill-rule="evenodd" clip-rule="evenodd" d="M84.9081 126.642V142.473C84.9081 144.04 107.934 148.785 107.934 148.785C107.934 148.785 130.96 144.709 130.96 142.473C130.96 138.242 130.873 117.002 130.96 97.2757C141.273 83.9087 141.273 75.5537 133.119 66.919C124.964 58.2843 66.9191 53.9669 66.9191 53.9669C66.9191 53.9669 62.5639 95.8525 61.8821 107.214C61.6079 111.784 58.6441 126.642 70.1571 126.642C76.6301 126.642 84.9081 126.642 84.9081 126.642Z" fill="url(#paint0_linear)"/>
<path fill-rule="evenodd" clip-rule="evenodd" d="M84.908 125.292V133.953C100.33 131.206 109.205 125.412 111.532 116.569C104.816 121.126 96.1811 124.004 85.6276 125.203C85.3865 125.231 85.1466 125.26 84.908 125.292Z" fill="#F5C6A6" style="mix-blend-mode:multiply"/>
<path d="M32.3802 175.075C27.8133 184.36 24.2155 199.711 21.5868 221.126H194.281C191.651 199.708 188.054 184.358 183.488 175.075C178.937 165.822 136.716 148.013 136.716 148.013L79.1516 148.008C79.1516 148.008 36.9219 165.84 32.3802 175.075Z" fill="url(#paint1_linear)"/>
<path fill-rule="evenodd" clip-rule="evenodd" d="M102.897 152.547L99.2993 218.746H116.569L112.971 152.547C112.971 152.547 109.613 148.949 107.934 148.949C106.255 148.949 102.897 152.547 102.897 152.547Z" fill="url(#paint2_linear)"/>
<path fill-rule="evenodd" clip-rule="evenodd" d="M102.169 165.944L113.348 159.485L112.971 152.547C110.732 150.148 109.053 148.949 107.934 148.949C106.815 148.949 105.136 150.148 102.897 152.547L102.169 165.944Z" fill="black" fill-opacity="0.1"/>
<path fill-rule="evenodd" clip-rule="evenodd" d="M107.934 148.943L115.13 161.901L137.436 148.229L130.96 138.875L107.934 147.381L84.9081 138.875L78.4321 148.229L100.738 161.901L107.934 148.943Z" fill="white"/>
<path d="M121.591 75.7016C123.88 73.7362 126.66 72.4133 130.59 74.4553C139.908 79.2965 133.724 97.9572 123.296 97.5931C119.701 97.4675 121.348 104.638 130.96 109.373C130.96 101.818 142.473 83.1092 143.477 66.0754C155.065 61.7618 152.187 44.5017 144.23 44.5017C145.503 28.6775 120.167 20.5074 110.356 29.5854C100.379 17.6292 75.1941 23.7455 73.6731 34.1178C56.356 24.8731 44.9725 51.4485 61.1878 61.7618C67.86 66.0055 83.469 67.6226 106 67.6226C116.813 67.6226 110.595 92.9297 107.214 101.098C102.897 111.532 78.7919 112.971 71.2365 111.892C65.3364 111.049 62.242 108.654 61.8822 107.214C56.4855 121.606 63.3214 130.24 74.1147 130.24C92.4635 130.24 110.812 124.844 113.691 111.532C115.981 100.937 115.856 83.8402 121.591 75.7016Z" fill="url(#paint3_linear)"/>
</g>
<defs>
<linearGradient id="paint0_linear" x1="138.988" y1="53.9669" x2="138.988" y2="148.785" gradientUnits="userSpaceOnUse">
<stop stop-color="#E6864E"/>
<stop offset="1" stop-color="#EB965E"/>
</linearGradient>
<linearGradient id="paint1_linear" x1="194.281" y1="148.008" x2="194.281" y2="221.126" gradientUnits="userSpaceOnUse">
<stop stop-color="#130027"/>
<stop offset="1" stop-color="#130017"/>
</linearGradient>
<linearGradient id="paint2_linear" x1="107.934" y1="148.949" x2="107.934" y2="218.746" gradientUnits="userSpaceOnUse">
<stop stop-color="#FFBFE1"/>
<stop offset="1" stop-color="#F4C5B1"/>
</linearGradient>
<linearGradient id="paint3_linear" x1="151.204" y1="23.0234" x2="151.204" y2="130.24" gradientUnits="userSpaceOnUse">
<stop stop-color="#130027"/>
<stop offset="1" stop-color="#130017"/>
</linearGradient>
</defs>
</svg>
