<svg width="216" height="216" viewBox="0 0 216 216" fill="none" xmlns="http://www.w3.org/2000/svg">
<path d="M107.934 215.868C48.3237 215.868 1.5974e-05 167.544 1.5974e-05 107.934C1.5974e-05 48.3237 48.3237 0 107.934 0C167.544 0 215.868 48.3237 215.868 107.934C215.868 167.544 167.544 215.868 107.934 215.868Z" fill="url(#paint0_linear)" fill-opacity="0.8"/>
<mask id="mask0" mask-type="alpha" maskUnits="userSpaceOnUse" x="0" y="0" width="216" height="216">
<path d="M107.934 215.868C48.3237 215.868 1.5974e-05 167.544 1.5974e-05 107.934C1.5974e-05 48.3237 48.3237 0 107.934 0C167.544 0 215.868 48.3237 215.868 107.934C215.868 167.544 167.544 215.868 107.934 215.868Z" fill="white"/>
</mask>
<g mask="url(#mask0)">
<path fill-rule="evenodd" clip-rule="evenodd" d="M55.7658 114.77C49.9288 95.3845 46.331 62.2419 70.8766 39.5758C89.6354 22.2533 140.314 20.5074 157.943 58.2843C160.886 64.5906 156.864 74.4744 148.949 74.1146C145.838 73.9732 143.912 83.8287 142.113 89.945C144.632 114.77 167.069 115.228 178.451 134.198C192.482 157.584 175.213 192.122 133.838 192.122C92.4634 192.122 68.7448 157.874 55.7658 114.77Z" fill="#140124"/>
<path fill-rule="evenodd" clip-rule="evenodd" d="M41.7345 171.255C36.4577 181.329 33.8193 218.027 33.8193 218.027H182.049C182.049 218.027 179.41 181.329 174.134 171.255C166.218 156.145 107.934 136.716 107.934 136.716C107.934 136.716 49.6496 156.145 41.7345 171.255Z" fill="#0B72FF"/>
<path fill-rule="evenodd" clip-rule="evenodd" d="M90.6646 145.351C90.6646 145.351 99.8502 150.388 108.301 150.388C116.752 150.388 125.203 145.351 125.203 145.351V129.521C127.357 129.905 129.008 129.848 130.702 129.848C147.963 129.846 154.472 104.704 151.108 74.1147C148.949 74.1147 143.912 74.1147 136.716 64.0409C138.515 78.0723 117.648 75.9136 109.733 64.7605C113.69 78.0723 103.257 87.0668 94.2624 81.6701C76.625 71.0877 72.6606 103.347 90.6646 103.617V145.351Z" fill="#9E5E38"/>
<mask id="mask1" mask-type="alpha" maskUnits="userSpaceOnUse" x="78" y="64" width="74" height="87">
<path fill-rule="evenodd" clip-rule="evenodd" d="M90.6646 145.351C90.6646 145.351 99.8502 150.388 108.301 150.388C116.752 150.388 125.203 145.351 125.203 145.351V129.521C127.357 129.905 129.008 129.848 130.702 129.848C147.963 129.846 154.472 104.704 151.108 74.1147C148.949 74.1147 143.912 74.1147 136.716 64.0409C138.515 78.0723 117.648 75.9136 109.733 64.7605C113.69 78.0723 103.257 87.0668 94.2624 81.6701C76.625 71.0877 72.6606 103.347 90.6646 103.617V145.351Z" fill="white"/>
</mask>
<g mask="url(#mask1)">
<path opacity="0.6" fill-rule="evenodd" clip-rule="evenodd" d="M125.203 129.521C110.812 127.002 100.019 119.807 100.019 119.807C100.019 119.807 109.013 135.277 125.203 135.277L125.203 129.521Z" fill="#683D24"/>
</g>
<path d="M107.91 149.65C102.71 149.415 90.6646 146.868 90.6646 141.365V136.716C89.3449 136.716 85.5662 139.834 83.6231 142.473C75.9407 152.907 84.462 162.261 91.4112 162.261C100.18 162.261 105.99 154.935 107.934 151.41C109.878 154.935 115.688 162.261 124.457 162.261C131.406 162.261 139.927 152.907 132.245 142.473C130.302 139.834 126.523 136.716 125.204 136.716V141.365C125.204 146.868 112.833 149.415 107.91 149.65H107.91Z" fill="white"/>
</g>
<defs>
<linearGradient id="paint0_linear" x1="107.934" y1="0" x2="107.934" y2="215.868" gradientUnits="userSpaceOnUse">
<stop stop-color="#FFBFE1"/>
<stop offset="1" stop-color="#F4C5B1"/>
</linearGradient>
</defs>
</svg>
