<svg width="216" height="217" viewBox="0 0 216 217" fill="none" xmlns="http://www.w3.org/2000/svg">
<path fill-rule="evenodd" clip-rule="evenodd" d="M108.066 216.692C167.676 216.692 216 168.368 216 108.758C216 49.1477 167.676 0.823975 108.066 0.823975C48.4555 0.823975 0.131836 49.1477 0.131836 108.758C0.131836 168.368 48.4555 216.692 108.066 216.692Z" fill="#0B72FF"/>
<mask id="mask0" mask-type="alpha" maskUnits="userSpaceOnUse" x="0" y="0" width="216" height="217">
<path fill-rule="evenodd" clip-rule="evenodd" d="M108.066 216.692C167.676 216.692 216 168.368 216 108.758C216 49.1477 167.676 0.823975 108.066 0.823975C48.4555 0.823975 0.131836 49.1477 0.131836 108.758C0.131836 168.368 48.4555 216.692 108.066 216.692Z" fill="white"/>
</mask>
<g mask="url(#mask0)">
<path fill-rule="evenodd" clip-rule="evenodd" d="M174.265 175.677C179.542 185.751 182.181 222.448 182.181 222.448H33.9512C33.9512 222.448 36.5896 185.751 41.8663 175.677C49.7815 160.566 108.066 141.138 108.066 141.138C108.066 141.138 166.35 160.566 174.265 175.677Z" fill="url(#paint0_linear)"/>
<mask id="mask1" mask-type="alpha" maskUnits="userSpaceOnUse" x="33" y="141" width="150" height="82">
<path fill-rule="evenodd" clip-rule="evenodd" d="M174.265 175.677C179.542 185.751 182.181 222.448 182.181 222.448H33.9512C33.9512 222.448 36.5896 185.751 41.8663 175.677C49.7815 160.566 108.066 141.138 108.066 141.138C108.066 141.138 166.35 160.566 174.265 175.677Z" fill="white"/>
</mask>
<g mask="url(#mask1)">
<path fill-rule="evenodd" clip-rule="evenodd" d="M64.8923 162.725C67.2767 162.725 69.2096 160.792 69.2096 158.408C69.2096 156.023 67.2767 154.09 64.8923 154.09C62.5078 154.09 60.5749 156.023 60.5749 158.408C60.5749 160.792 62.5078 162.725 64.8923 162.725ZM40.4272 158.408C40.4272 160.792 38.4943 162.725 36.1098 162.725C33.7254 162.725 31.7925 160.792 31.7925 158.408C31.7925 156.023 33.7254 154.09 36.1098 154.09C38.4943 154.09 40.4272 156.023 40.4272 158.408ZM54.8184 172.799C54.8184 175.183 52.8855 177.116 50.5011 177.116C48.1166 177.116 46.1837 175.183 46.1837 172.799C46.1837 170.414 48.1166 168.482 50.5011 168.482C52.8855 168.482 54.8184 170.414 54.8184 172.799ZM83.6008 172.799C83.6008 175.183 81.6679 177.116 79.2835 177.116C76.899 177.116 74.9661 175.183 74.9661 172.799C74.9661 170.414 76.899 168.482 79.2835 168.482C81.6679 168.482 83.6008 170.414 83.6008 172.799ZM108.066 177.116C110.45 177.116 112.383 175.183 112.383 172.799C112.383 170.414 110.45 168.482 108.066 168.482C105.681 168.482 103.749 170.414 103.749 172.799C103.749 175.183 105.681 177.116 108.066 177.116ZM141.166 172.799C141.166 175.183 139.233 177.116 136.848 177.116C134.464 177.116 132.531 175.183 132.531 172.799C132.531 170.414 134.464 168.482 136.848 168.482C139.233 168.482 141.166 170.414 141.166 172.799ZM165.631 177.116C168.015 177.116 169.948 175.183 169.948 172.799C169.948 170.414 168.015 168.482 165.631 168.482C163.246 168.482 161.313 170.414 161.313 172.799C161.313 175.183 163.246 177.116 165.631 177.116ZM155.557 158.408C155.557 160.792 153.624 162.725 151.239 162.725C148.855 162.725 146.922 160.792 146.922 158.408C146.922 156.023 148.855 154.09 151.239 154.09C153.624 154.09 155.557 156.023 155.557 158.408ZM180.022 162.725C182.406 162.725 184.339 160.792 184.339 158.408C184.339 156.023 182.406 154.09 180.022 154.09C177.637 154.09 175.705 156.023 175.705 158.408C175.705 160.792 177.637 162.725 180.022 162.725ZM54.8184 201.581C54.8184 203.966 52.8855 205.899 50.5011 205.899C48.1166 205.899 46.1837 203.966 46.1837 201.581C46.1837 199.197 48.1166 197.264 50.5011 197.264C52.8855 197.264 54.8184 199.197 54.8184 201.581ZM79.2835 205.899C81.6679 205.899 83.6008 203.966 83.6008 201.581C83.6008 199.197 81.6679 197.264 79.2835 197.264C76.899 197.264 74.9661 199.197 74.9661 201.581C74.9661 203.966 76.899 205.899 79.2835 205.899ZM112.383 201.581C112.383 203.966 110.45 205.899 108.066 205.899C105.681 205.899 103.749 203.966 103.749 201.581C103.749 199.197 105.681 197.264 108.066 197.264C110.45 197.264 112.383 199.197 112.383 201.581ZM136.848 205.899C139.233 205.899 141.166 203.966 141.166 201.581C141.166 199.197 139.233 197.264 136.848 197.264C134.464 197.264 132.531 199.197 132.531 201.581C132.531 203.966 134.464 205.899 136.848 205.899ZM169.948 201.581C169.948 203.966 168.015 205.899 165.631 205.899C163.246 205.899 161.313 203.966 161.313 201.581C161.313 199.197 163.246 197.264 165.631 197.264C168.015 197.264 169.948 199.197 169.948 201.581ZM36.1099 191.507C38.4943 191.507 40.4272 189.575 40.4272 187.19C40.4272 184.806 38.4943 182.873 36.1099 182.873C33.7254 182.873 31.7925 184.806 31.7925 187.19C31.7925 189.575 33.7254 191.507 36.1099 191.507ZM69.2096 187.19C69.2096 189.575 67.2767 191.507 64.8923 191.507C62.5078 191.507 60.5749 189.575 60.5749 187.19C60.5749 184.806 62.5078 182.873 64.8923 182.873C67.2767 182.873 69.2096 184.806 69.2096 187.19ZM93.6747 191.507C96.0591 191.507 97.992 189.575 97.992 187.19C97.992 184.806 96.0591 182.873 93.6747 182.873C91.2902 182.873 89.3573 184.806 89.3573 187.19C89.3573 189.575 91.2902 191.507 93.6747 191.507ZM126.774 187.19C126.774 189.575 124.841 191.507 122.457 191.507C120.073 191.507 118.14 189.575 118.14 187.19C118.14 184.806 120.073 182.873 122.457 182.873C124.841 182.873 126.774 184.806 126.774 187.19ZM151.239 191.507C153.624 191.507 155.557 189.575 155.557 187.19C155.557 184.806 153.624 182.873 151.239 182.873C148.855 182.873 146.922 184.806 146.922 187.19C146.922 189.575 148.855 191.507 151.239 191.507ZM184.339 187.19C184.339 189.575 182.406 191.507 180.022 191.507C177.637 191.507 175.705 189.575 175.705 187.19C175.705 184.806 177.637 182.873 180.022 182.873C182.406 182.873 184.339 184.806 184.339 187.19ZM36.1099 220.29C38.4943 220.29 40.4272 218.357 40.4272 215.972C40.4272 213.588 38.4943 211.655 36.1099 211.655C33.7254 211.655 31.7925 213.588 31.7925 215.972C31.7925 218.357 33.7254 220.29 36.1099 220.29ZM69.2096 215.972C69.2096 218.357 67.2767 220.29 64.8923 220.29C62.5078 220.29 60.5749 218.357 60.5749 215.972C60.5749 213.588 62.5078 211.655 64.8923 211.655C67.2767 211.655 69.2096 213.588 69.2096 215.972ZM93.6747 220.29C96.0591 220.29 97.992 218.357 97.992 215.972C97.992 213.588 96.0591 211.655 93.6747 211.655C91.2902 211.655 89.3573 213.588 89.3573 215.972C89.3573 218.357 91.2902 220.29 93.6747 220.29ZM126.774 215.972C126.774 218.357 124.841 220.29 122.457 220.29C120.073 220.29 118.14 218.357 118.14 215.972C118.14 213.588 120.073 211.655 122.457 211.655C124.841 211.655 126.774 213.588 126.774 215.972ZM151.239 220.29C153.624 220.29 155.557 218.357 155.557 215.972C155.557 213.588 153.624 211.655 151.239 211.655C148.855 211.655 146.922 213.588 146.922 215.972C146.922 218.357 148.855 220.29 151.239 220.29ZM184.339 215.972C184.339 218.357 182.406 220.29 180.022 220.29C177.637 220.29 175.705 218.357 175.705 215.972C175.705 213.588 177.637 211.655 180.022 211.655C182.406 211.655 184.339 213.588 184.339 215.972Z" fill="#FFF7F3"/>
</g>
<path d="M115.883 38.7484C113.005 26.1561 126.653 16.4931 140.708 23.1265C173.808 38.7484 154.118 60.5475 141.885 59.1084C129.653 57.6692 118.762 51.3407 115.883 38.7484Z" fill="url(#paint1_linear)"/>
<mask id="mask2" mask-type="alpha" maskUnits="userSpaceOnUse" x="115" y="20" width="44" height="40">
<path d="M115.883 38.7484C113.005 26.1561 126.653 16.4931 140.708 23.1265C173.808 38.7484 154.118 60.5475 141.885 59.1084C129.653 57.6692 118.762 51.3407 115.883 38.7484Z" fill="white"/>
</mask>
<g mask="url(#mask2)">
<path opacity="0.6" fill-rule="evenodd" clip-rule="evenodd" d="M127.854 40.7596C127.854 40.7596 152.319 56.59 158.435 47.9552C159.066 51.5608 156.164 61.7457 151.599 61.6269C137.944 61.2715 127.854 40.7596 127.854 40.7596Z" fill="black"/>
</g>
<path d="M123.896 118.112C108.438 125.539 106.183 125.141 72.0879 97.2451C20.6394 55.1508 69.2097 16.6544 121.378 37.1618C177.863 61.9866 158.939 101.278 123.896 118.112Z" fill="url(#paint2_linear)"/>
<path fill-rule="evenodd" clip-rule="evenodd" d="M125.335 147.614C120.058 156.249 96.0731 156.249 90.7963 147.614V133.223C90.7963 133.223 88.4487 133.292 86.8388 133.223C70.0087 132.502 64.3846 105.429 67.0258 78.3477C68.96 58.5155 85.7594 85.732 113.103 66.6637C112.023 87.5309 121.018 85.3723 124.975 82.8538C142.964 74.5789 143.115 108.5 125.335 105.88V147.614Z" fill="url(#paint3_linear)"/>
<path d="M90.7963 133.223C100.51 132.503 114.998 122.357 114.998 122.357C114.998 122.357 108.066 137.181 90.7963 139.699L90.7963 133.223Z" fill="#DB6F3D" fill-opacity="0.4"/>
<path fill-rule="evenodd" clip-rule="evenodd" d="M125.335 145.787V141.138C126.655 141.138 130.434 144.256 132.377 146.895C140.059 157.328 131.538 166.683 124.589 166.683C115.82 166.683 110.01 159.356 108.066 155.831C106.122 159.356 100.312 166.683 91.5431 166.683C84.5939 166.683 76.0726 157.328 83.7549 146.895C85.6981 144.256 89.4768 141.138 90.7965 141.138V145.787C90.7965 151.29 102.842 153.837 108.042 154.072C112.965 153.837 125.335 151.29 125.335 145.787Z" fill="white"/>
</g>
<defs>
<linearGradient id="paint0_linear" x1="108.066" y1="141.138" x2="108.066" y2="222.448" gradientUnits="userSpaceOnUse">
<stop stop-color="#FFBFE1"/>
<stop offset="1" stop-color="#F4C5B1"/>
</linearGradient>
<linearGradient id="paint1_linear" x1="158.951" y1="20.9717" x2="158.951" y2="59.1761" gradientUnits="userSpaceOnUse">
<stop stop-color="#1D0024"/>
<stop offset="1" stop-color="#100014"/>
</linearGradient>
<linearGradient id="paint2_linear" x1="50.1858" y1="31.4825" x2="50.1858" y2="122.202" gradientUnits="userSpaceOnUse">
<stop stop-color="#1D0024"/>
<stop offset="1" stop-color="#100014"/>
</linearGradient>
<linearGradient id="paint3_linear" x1="66.4043" y1="66.6637" x2="66.4043" y2="154.09" gradientUnits="userSpaceOnUse">
<stop stop-color="#F7B186"/>
<stop offset="1" stop-color="#FFC299"/>
</linearGradient>
</defs>
</svg>
