<svg width="216" height="216" viewBox="0 0 216 216" fill="none" xmlns="http://www.w3.org/2000/svg">
<path fill-rule="evenodd" clip-rule="evenodd" d="M107.934 215.868C48.3237 215.868 1.5974e-05 167.544 1.5974e-05 107.934C1.5974e-05 48.3237 48.3237 0 107.934 0C167.544 0 215.868 48.3237 215.868 107.934C215.868 167.544 167.544 215.868 107.934 215.868Z" fill="url(#paint0_linear)" fill-opacity="0.5"/>
<mask id="mask0" mask-type="alpha" maskUnits="userSpaceOnUse" x="0" y="0" width="216" height="216">
<path fill-rule="evenodd" clip-rule="evenodd" d="M107.934 215.868C48.3237 215.868 1.5974e-05 167.544 1.5974e-05 107.934C1.5974e-05 48.3237 48.3237 0 107.934 0C167.544 0 215.868 48.3237 215.868 107.934C215.868 167.544 167.544 215.868 107.934 215.868Z" fill="white"/>
</mask>
<g mask="url(#mask0)">
<path fill-rule="evenodd" clip-rule="evenodd" d="M125.064 133.692C125.064 133.692 125.064 133.692 125.064 141.614C125.064 152.176 139.999 156.797 139.999 156.797C139.999 156.797 122.791 170 104.934 170C87.0763 170 69.8682 156.797 69.8682 156.797C69.8682 156.797 84.9208 152.176 84.8035 141.614C84.6862 131.051 84.7644 124.847 84.6862 106.75C75.3795 94.4861 75.9765 86.2552 81.0656 80.4671C98.1154 61.0751 144.545 67.6766 144.545 67.6766C144.545 67.6766 148.877 115.203 139.025 129.071C134.804 135.012 125.064 133.692 125.064 133.692Z" fill="#F0A97C"/>
<g style="mix-blend-mode:multiply" opacity="0.6">
<path fill-rule="evenodd" clip-rule="evenodd" d="M124.868 133.5C110.411 131.938 101.868 126 101.868 126C101.868 126 109.097 137.562 124.868 141V133.5Z" fill="url(#paint1_linear)"/>
</g>
<path d="M173.993 176.305C180.261 188.916 183.868 218 183.868 218H25.8682C25.8682 218 29.4774 188.913 35.7432 176.305C42.0089 163.698 78.6002 152.004 78.6002 152.004C85.6531 166.336 124.36 166.334 131.116 152C131.116 152 167.726 163.695 173.993 176.305Z" fill="#0B72FF"/>
<path fill-rule="evenodd" clip-rule="evenodd" d="M104.934 178.04C106.383 178.04 107.557 176.865 107.557 175.416C107.557 173.967 106.383 172.793 104.934 172.793C103.485 172.793 102.311 173.967 102.311 175.416C102.311 176.865 103.485 178.04 104.934 178.04ZM104.934 191.157C106.383 191.157 107.557 189.982 107.557 188.533C107.557 187.084 106.383 185.91 104.934 185.91C103.485 185.91 102.311 187.084 102.311 188.533C102.311 189.982 103.485 191.157 104.934 191.157ZM107.557 201.65C107.557 203.099 106.383 204.274 104.934 204.274C103.485 204.274 102.311 203.099 102.311 201.65C102.311 200.201 103.485 199.027 104.934 199.027C106.383 199.027 107.557 200.201 107.557 201.65Z" fill="white"/>
<path d="M92.8069 87.1944C90.7251 85.3964 88.196 84.186 84.6208 86.0542C76.1446 90.4834 82.5597 107.465 90.0872 107.465C92.0515 107.465 93.0278 113.668 84.2842 118C84.2842 111.088 73.8111 93.9715 72.8977 78.3876C62.3561 74.4411 64.9744 58.6502 72.2124 58.6502C71.0547 44.1728 94.1027 36.6981 103.027 45.0034C112.103 34.0649 135.013 39.6606 136.397 49.1501C152.15 40.6923 162.505 65.0057 147.755 74.4411C141.685 78.3236 127.486 79.8031 106.99 79.8031C103.896 79.8031 102.162 80.5759 103.027 84.4237C104.703 91.8795 100.814 96.5763 92.8069 87.1944Z" fill="#8D4C25"/>
</g>
<defs>
<linearGradient id="paint0_linear" x1="48" y1="-4.51854e-08" x2="172" y2="222" gradientUnits="userSpaceOnUse">
<stop stop-color="#FFBFE1"/>
<stop offset="1" stop-color="#F4C5B1"/>
</linearGradient>
<linearGradient id="paint1_linear" x1="110.148" y1="126.223" x2="106.489" y2="140.82" gradientUnits="userSpaceOnUse">
<stop stop-color="#E07A3F"/>
<stop offset="1" stop-color="#EB9154"/>
</linearGradient>
</defs>
</svg>
