<?xml version="1.0" standalone="no"?>
<!DOCTYPE svg PUBLIC "-//W3C//DTD SVG 20010904//EN"
 "http://www.w3.org/TR/2001/REC-SVG-20010904/DTD/svg10.dtd">
<svg version="1.0" xmlns="http://www.w3.org/2000/svg"
 width="564.000000pt" height="443.000000pt" viewBox="0 0 564.000000 443.000000"
 preserveAspectRatio="xMidYMid meet">

<g transform="translate(0.000000,443.000000) scale(0.100000,-0.100000)"
fill="#000000" stroke="none">
<path d="M1805 2914 c-124 -64 -139 -189 -33 -267 30 -23 106 -33 173 -23 85
13 151 112 125 190 -12 38 -63 90 -103 105 -41 16 -127 13 -162 -5z"/>
<path d="M1250 2804 c-98 -45 -170 -139 -170 -223 0 -64 -6 -71 -61 -71 l-49
0 0 -110 0 -110 50 0 50 0 0 -245 0 -245 155 0 155 0 0 245 0 245 75 0 75 0 0
110 0 110 -75 0 -75 0 0 29 c0 47 25 64 85 58 l51 -5 32 88 c18 48 32 97 32
108 0 30 -52 42 -175 42 -86 0 -108 -4 -155 -26z"/>
<path d="M2190 2310 l0 -510 145 0 145 0 0 32 0 32 28 -26 c56 -52 238 -63
336 -19 48 21 137 104 160 149 51 101 52 312 2 409 -19 37 -123 140 -147 146
-13 3 -44 13 -69 22 -59 22 -176 16 -242 -13 l-48 -21 0 154 0 155 -155 0
-155 0 0 -510z m495 -6 c13 -8 28 -29 34 -46 16 -44 14 -133 -4 -174 -26 -64
-128 -83 -180 -34 -59 55 -57 203 3 251 31 24 112 26 147 3z"/>
<path d="M3150 2310 l0 -510 145 0 145 0 0 31 0 30 33 -24 c59 -45 194 -60
295 -33 161 43 276 249 244 435 -37 207 -184 331 -380 319 -57 -4 -89 -12
-124 -31 l-48 -25 0 159 0 159 -155 0 -155 0 0 -510z m523 -36 c23 -33 28 -51
28 -98 0 -126 -101 -196 -188 -130 -80 61 -84 193 -7 253 22 18 38 21 83 19
52 -3 57 -5 84 -44z"/>
<path d="M4120 2310 l0 -510 155 0 155 0 0 510 0 510 -155 0 -155 0 0 -510z"/>
<path d="M1737 2544 c-3 -3 -6 -172 -7 -375 l-1 -369 156 0 155 0 0 375 0 375
-148 0 c-82 0 -151 -3 -155 -6z"/>
</g>
</svg>
